# xmcd
#
# Track frame offsets:
#	150
#	23730
#	50137
#	77386
#	94802
#	122614
#	148280
#	170939
#	198920
#
# Disc length: 2986 seconds
#
# Revision: 0
# Processed by: cddbd v1.4PL0 Copyright (c) Steve Scherf et al.
# Submitted via: dBpowerAMP V4.0
#
DISCID=7b0ba809
DTITLE=Cuban Heels - Sweet and Lowdown
DYEAR=1999
DGENRE=Blues
TTITLE0=Devil's Daughter
TTITLE1=Heavy Blues
TTITLE2=Let's Get High
TTITLE3=Running Shoes
TTITLE4=What's Wrong with You
TTITLE5=Early in the Morning
TTITLE6=I'm Leavin'
TTITLE7=Playhouse
TTITLE8=Cut to Pieces
EXTD=
EXTT0=
EXTT1=
EXTT2=
EXTT3=
EXTT4=
EXTT5=
EXTT6=
EXTT7=
EXTT8=
PLAYORDER=
